# Blender v2.79 (sub 0) OBJ File: ''
# www.blender.org
mtllib spear.mtl
o Cube
v -1.000000 0.000000 0.000000
v 1.000000 0.000000 0.000000
v -0.809394 0.000000 0.100000
v -0.809394 0.100000 0.000000
v -0.809394 -0.100000 0.000000
v -0.809394 0.000000 -0.100000
vn -0.3478 -0.6630 0.6630
vn -0.3478 0.6630 0.6630
vn -0.3478 -0.6630 -0.6630
vn -0.3478 0.6630 -0.6630
vn 0.0390 0.7066 -0.7066
vn 0.0390 0.7066 0.7066
vn 0.0390 -0.7066 0.7066
vn 0.0390 -0.7066 -0.7066
usemtl Material
s off
f 3//1 1//1 5//1
f 3//2 4//2 1//2
f 5//3 1//3 6//3
f 1//4 4//4 6//4
f 4//5 2//5 6//5
f 4//6 3//6 2//6
f 3//7 5//7 2//7
f 6//8 2//8 5//8
