# Blender v2.79 (sub 0) OBJ File: 'wraithV1.blend'
# www.blender.org
mtllib wraithHitbox.mtl
o Cube
v -0.027766 0.141221 0.044297
v -0.164125 0.132680 0.047949
v -0.055643 0.297370 0.093366
v -0.247512 0.288829 0.097017
v -0.018137 0.458206 0.190608
v -0.278922 0.449666 0.194259
v -0.029580 0.769290 0.309881
v -0.290365 0.760750 0.313533
v 0.056090 0.791186 0.194045
v 0.046237 0.481216 0.081914
v 0.047961 0.848252 0.219662
v 0.066950 0.872628 0.141819
v 0.053671 0.984060 0.181580
v 0.031646 0.977096 0.269435
v 0.031541 0.886558 0.280188
v 0.211244 0.850951 0.253430
v 0.230233 0.875327 0.175588
v 0.216954 0.986759 0.186775
v 0.194929 0.979795 0.303203
v 0.194824 0.889257 0.313956
v 0.358205 0.854290 0.221085
v 0.377194 0.878666 0.143243
v 0.363915 0.990098 0.166190
v 0.341890 0.983134 0.270858
v 0.341785 0.892596 0.281611
v 0.416115 0.918837 0.187710
v 0.401840 0.960753 0.191622
v -0.027766 0.141221 -0.044297
v -0.120192 0.132680 -0.047949
v -0.024277 -0.107914 0.000000
v -0.055643 0.297370 -0.093366
v -0.247512 0.288829 -0.097017
v -0.018137 0.458206 -0.190608
v -0.278922 0.449666 -0.194259
v -0.029580 0.769290 -0.309881
v -0.290365 0.760750 -0.313533
v 0.043709 0.148788 0.000000
v 0.050709 0.308598 0.000000
v 0.064141 0.480995 0.000000
v 0.056090 0.791186 -0.194045
v 0.090849 0.799094 0.000000
v 0.046237 0.481216 -0.081914
v 0.047961 0.848252 -0.219662
v 0.066950 0.872628 -0.141819
v 0.053671 0.984060 -0.181580
v 0.031646 0.977096 -0.269435
v 0.031541 0.886558 -0.280188
v 0.211244 0.850951 -0.253430
v 0.230233 0.875327 -0.175588
v 0.216954 0.986759 -0.186775
v 0.194929 0.979795 -0.303203
v 0.194824 0.889257 -0.313956
v 0.358205 0.854290 -0.221085
v 0.377194 0.878666 -0.143243
v 0.363915 0.990098 -0.166190
v 0.341890 0.983134 -0.270858
v 0.341785 0.892596 -0.281611
v 0.416115 0.918837 -0.187710
v 0.401840 0.960753 -0.191622
v -0.226757 0.955762 0.000000
vn 0.0373 -0.1744 0.9840
vn 0.0439 -0.2924 0.9553
vn 0.0391 -0.5114 0.8585
vn 0.0248 -0.3571 0.9337
vn 0.5323 -0.1410 0.8348
vn 0.6622 -0.1145 0.7405
vn 0.5284 -0.0231 0.8487
vn 0.9741 -0.0759 0.2131
vn 0.8610 -0.1996 0.4677
vn 0.5964 -0.5126 0.6177
vn 0.9816 -0.0824 0.1725
vn 0.9712 -0.1078 0.2126
vn 0.8613 -0.1968 0.4684
vn 0.8065 -0.1856 0.5614
vn -0.2030 0.1157 0.9723
vn 0.1991 0.1214 -0.9724
vn -0.0923 -0.8525 0.5145
vn -0.0183 0.9982 0.0563
vn 0.0740 -0.9567 -0.2815
vn -0.0464 -0.9500 -0.3088
vn 0.2110 0.1150 0.9707
vn -0.2155 0.1723 -0.9612
vn 0.1411 -0.8188 0.5565
vn -0.0138 0.9979 0.0635
vn 0.5891 0.2717 -0.7610
vn 0.6572 0.2264 -0.7189
vn 0.7355 -0.6767 -0.0325
vn 0.5309 0.8308 0.1670
vn 0.4413 0.0668 0.8949
vn 0.8821 -0.2513 0.3984
vn 0.8049 0.0691 0.5894
vn 0.9843 -0.0187 0.1756
vn 0.9691 0.0280 0.2452
vn 0.8085 -0.1413 0.5713
vn 0.8390 -0.3272 0.4347
vn 0.0076 0.1889 0.9820
vn 0.9890 0.0716 0.1295
vn 0.0549 -0.1740 -0.9832
vn 0.0644 -0.2887 -0.9553
vn 0.0290 -0.5221 -0.8524
vn 0.0248 -0.3571 -0.9337
vn 0.5323 -0.1410 -0.8348
vn 0.6622 -0.1145 -0.7405
vn 0.5284 -0.0231 -0.8487
vn 0.9741 -0.0759 -0.2131
vn 0.8610 -0.1996 -0.4677
vn 0.5964 -0.5126 -0.6177
vn 0.9816 -0.0824 -0.1725
vn 0.9712 -0.1078 -0.2126
vn 0.8613 -0.1968 -0.4684
vn 0.8065 -0.1856 -0.5614
vn -0.2030 0.1157 -0.9723
vn 0.0243 0.3385 0.9406
vn -0.0923 -0.8525 -0.5145
vn -0.0312 0.9970 -0.0712
vn 0.0740 -0.9567 0.2815
vn -0.0464 -0.9500 0.3088
vn 0.2110 0.1150 -0.9707
vn -0.1401 0.0824 0.9867
vn 0.1411 -0.8188 -0.5565
vn -0.0100 0.9983 -0.0578
vn 0.5891 0.2717 0.7610
vn 0.6572 0.2264 0.7189
vn 0.7355 -0.6767 0.0325
vn 0.5309 0.8308 -0.1670
vn 0.4413 0.0668 -0.8949
vn 0.8821 -0.2513 -0.3984
vn 0.8049 0.0691 -0.5894
vn 0.9843 -0.0187 -0.1756
vn 0.9691 0.0280 -0.2452
vn 0.8085 -0.1413 -0.5713
vn 0.8390 -0.3272 -0.4347
vn 0.0076 0.1889 -0.9820
vn 0.9890 0.0716 -0.1295
vn -0.8305 -0.4069 -0.3805
vn -0.8821 -0.4711 0.0000
vn -0.9815 -0.1917 0.0000
vn -0.9993 -0.0368 0.0000
vn -0.9507 0.3101 0.0000
vn -0.4750 0.7872 0.3933
vn -0.4750 0.7872 -0.3933
vn -0.1297 0.9905 0.0460
vn 0.9804 0.1971 0.0000
vn -0.1004 0.9949 0.0000
vn -0.1297 0.9905 -0.0460
vn 0.2487 0.1140 -0.9619
vn 0.2487 0.1140 0.9619
vn 0.0309 -0.2846 0.9582
vn 0.0290 -0.5221 0.8524
vn 0.0243 0.3385 -0.9406
vn -0.0312 0.9970 0.0712
vn -0.1401 0.0824 -0.9867
vn -0.0100 0.9983 0.0578
vn 0.0306 -0.2769 -0.9604
vn 0.0391 -0.5114 -0.8585
vn 0.1991 0.1214 0.9724
vn -0.0183 0.9982 -0.0563
vn -0.2155 0.1723 0.9612
vn -0.0138 0.9979 -0.0635
vn -0.6852 -0.6573 -0.3139
usemtl Material
s off
f 1//1 2//1 30//1
f 3//2 2//2 1//2
f 3//3 6//3 4//3
f 7//4 6//4 5//4
f 1//5 30//5 37//5
f 1//6 38//6 3//6
f 37//7 38//7 1//7
f 39//8 10//8 38//8
f 10//9 5//9 38//9
f 3//10 38//10 5//10
f 41//11 9//11 39//11
f 39//12 9//12 10//12
f 10//13 9//13 5//13
f 5//14 9//14 7//14
f 15//15 19//15 14//15
f 12//16 18//16 17//16
f 11//17 20//17 15//17
f 13//18 19//18 18//18
f 12//19 16//19 11//19
f 17//20 21//20 16//20
f 19//21 25//21 24//21
f 17//22 23//22 22//22
f 16//23 25//23 20//23
f 18//24 24//24 23//24
f 26//25 22//25 27//25
f 23//26 27//26 22//26
f 22//27 26//27 21//27
f 24//28 27//28 23//28
f 26//29 27//29 21//29
f 21//30 27//30 25//30
f 25//31 27//31 24//31
f 12//32 9//32 41//32
f 11//33 9//33 12//33
f 9//34 11//34 7//34
f 11//35 15//35 7//35
f 7//36 14//36 8//36
f 13//37 12//37 41//37
f 28//38 30//38 29//38
f 29//39 31//39 28//39
f 31//40 34//40 33//40
f 34//41 35//41 33//41
f 28//42 37//42 30//42
f 28//43 31//43 38//43
f 37//44 28//44 38//44
f 39//45 38//45 42//45
f 42//46 38//46 33//46
f 31//47 33//47 38//47
f 41//48 39//48 40//48
f 39//49 42//49 40//49
f 42//50 33//50 40//50
f 33//51 35//51 40//51
f 51//52 47//52 46//52
f 44//53 50//53 45//53
f 43//54 52//54 48//54
f 45//55 51//55 46//55
f 48//56 44//56 43//56
f 53//57 49//57 48//57
f 51//58 57//58 52//58
f 49//59 55//59 50//59
f 48//60 57//60 53//60
f 50//61 56//61 51//61
f 58//62 59//62 54//62
f 55//63 54//63 59//63
f 54//64 53//64 58//64
f 56//65 55//65 59//65
f 58//66 53//66 59//66
f 53//67 57//67 59//67
f 57//68 56//68 59//68
f 44//69 41//69 40//69
f 43//70 44//70 40//70
f 40//71 35//71 43//71
f 43//72 35//72 47//72
f 35//73 36//73 46//73
f 45//74 41//74 44//74
f 2//75 29//75 30//75
f 32//76 2//76 4//76
f 34//77 4//77 6//77
f 36//78 6//78 8//78
f 36//79 8//79 60//79
f 14//80 60//80 8//80
f 46//81 36//81 60//81
f 14//82 13//82 60//82
f 41//83 45//83 13//83
f 60//84 13//84 45//84
f 45//85 46//85 60//85
f 47//86 35//86 46//86
f 15//87 14//87 7//87
f 3//88 4//88 2//88
f 3//89 5//89 6//89
f 7//4 8//4 6//4
f 15//15 20//15 19//15
f 12//90 13//90 18//90
f 11//17 16//17 20//17
f 13//91 14//91 19//91
f 12//19 17//19 16//19
f 17//20 22//20 21//20
f 19//21 20//21 25//21
f 17//92 18//92 23//92
f 16//23 21//23 25//23
f 18//93 19//93 24//93
f 29//94 32//94 31//94
f 31//95 32//95 34//95
f 34//41 36//41 35//41
f 51//52 52//52 47//52
f 44//96 49//96 50//96
f 43//54 47//54 52//54
f 45//97 50//97 51//97
f 48//56 49//56 44//56
f 53//57 54//57 49//57
f 51//58 56//58 57//58
f 49//98 54//98 55//98
f 48//60 52//60 57//60
f 50//99 55//99 56//99
f 32//100 29//100 2//100
f 34//77 32//77 4//77
f 36//78 34//78 6//78
